PathFileType	4	(X/Y/Z)	OpenSim_Sub09_EMGStiffKnee_Accel.trc
DataRate	CameraRate	NumFrames	NumMarkers	Units	OrigDataRate	OrigDataStartFrame	OrigNumFrames
100	100	30	8	m	100	3793	7584
Frame#	Time	torso_imu_offset_imu	pelvis_imu_offset_imu	tibia_r_imu_offset_imu	femur_r_imu_offset_imu	tibia_l_imu_offset_imu	femur_l_imu_offset_imu	toes_r_imu_offset_imu	toes_l_imu_offset_imu
				X1	Y1	Z1	X2	Y2	Z2	X3	Y3	Z3	X4	Y4	Z4	X5	Y5	Z5	X6	Y6	Z6	X7	Y7	Z7	X8		Y8	Z8	

3793	37.92000000	8.38685978	1.37881383	6.87053497	8.70831081	-2.16512121	3.13306445	8.41211773	2.58671147	1.35377690	8.12993206	-5.32854576	3.88077620	10.01558741	-1.04081340	0.53339112	9.87233163	-0.25827093	-1.63344205	9.01358438	-3.66291439	5.54774379	5.20975877	2.30699300	10.96200658
3794	37.93000000	8.48846050	1.36342638	6.86486477	8.83336979	-2.16784998	2.99520119	7.50058306	2.15230727	2.10295386	8.47659458	-5.68185303	4.27024311	10.26342201	-1.18525327	0.60666532	9.97197966	0.04289112	-1.45693909	9.42054170	-4.04146092	4.62917058	5.02573019	2.31390659	11.11898698
3795	37.94000000	8.57767958	1.42248848	6.89499510	8.91141836	-2.14902793	2.86844649	6.88608758	1.50262441	2.88744629	8.71461903	-5.86299253	4.52889888	10.44706609	-1.38416418	0.77342036	10.04292195	0.31397458	-1.27410037	11.53149327	-3.75773515	4.30553685	4.65056527	2.22351555	11.35405746
3796	37.95000000	8.64739267	1.42612649	6.89368338	9.01075348	-2.17403795	2.80231229	6.68705843	0.84819717	2.56848056	8.70562170	-6.08310585	4.68029447	10.56243809	-1.31203087	0.94107857	10.13406033	0.63183047	-1.15964504	13.50783818	-2.70375776	3.70722713	5.12349020	1.76346863	11.17006380
3797	37.96000000	8.68683353	1.49795755	6.86494776	9.04687612	-2.30360183	2.68980219	6.69979880	0.51725012	2.45395474	8.60672506	-6.12724566	4.74104911	10.56060750	-1.30092182	1.11234968	10.16259747	0.80579153	-1.29702832	13.90542374	-1.65797048	2.22896230	5.27533326	1.50739107	11.30819495
3798	37.97000000	8.79614032	1.50104194	6.77203669	9.01737213	-2.40595768	2.53722327	6.98014370	0.25525871	2.14854562	8.58616685	-6.22255616	4.79687633	10.66891622	-1.52643967	1.02138954	10.21502386	0.98238323	-1.37737001	12.96182516	-0.91186239	0.18663786	5.10263499	1.12341675	11.41716269
3799	37.98000000	8.94345652	1.54644853	6.69406923	8.91780507	-2.51159722	2.37099097	7.17662585	0.00249857	1.25246406	8.78838631	-6.40461922	4.90103164	10.99014931	-2.19662844	1.15443910	10.36779854	1.19628699	-1.46976308	12.61175092	-0.99844054	-1.53901614	4.84141905	1.03352374	11.67557791
3800	37.99000000	9.10193066	1.64849849	6.60696438	8.86208027	-2.53871400	2.09858416	6.91211663	-0.05335256	0.70881290	9.01542446	-6.66049808	4.92476565	11.01785744	-2.38104517	1.13554824	10.61145479	1.30760643	-1.50375448	13.62121420	-1.09374546	-2.72938696	5.04667401	1.16783527	11.48490484
3801	38	9.11367335	1.73120292	6.50382332	8.89667664	-2.44913767	1.83120487	6.34591567	-0.33359914	0.40536733	9.00807988	-7.12602032	4.80633769	10.71774353	-2.09333033	0.83048275	10.57589759	1.38641564	-1.63191582	14.02992098	-1.24330926	-3.58872716	5.19488399	1.18940287	11.40122152
3802	38.01000000	9.19950900	1.84095661	6.32354308	8.88025835	-2.32085176	1.53002098	5.65543616	-0.42625757	0.28612830	8.72277857	-7.48350862	4.07241288	10.85198205	-1.87485064	0.53494229	10.42075520	1.50072351	-1.86698421	14.05831452	-1.23810760	-4.19833798	5.31388396	1.31633325	11.36003914
3803	38.02000000	9.31915245	1.93652594	6.19716374	8.78808675	-2.16732637	1.20842562	5.00377984	-0.21418770	0.32753549	7.79553326	-7.08554908	2.99280855	10.93965982	-1.98158051	0.34295526	10.27013176	1.52059661	-2.03423281	12.75525409	-0.75821104	-4.55890656	4.79977385	2.04414195	11.67790523
3804	38.03000000	9.45902424	1.93868145	5.99758695	8.71693803	-2.09397478	0.97599695	4.49724013	0.33789870	0.02226433	6.59683713	-5.78659438	2.14476537	11.08167136	-2.04626148	0.15905214	10.21320852	1.29144703	-2.22885442	12.65519524	-0.24723743	-3.70389745	4.83600905	2.14237794	11.48041738
3805	38.04000000	9.53052231	1.88905661	5.93509395	8.74536096	-1.94472521	0.74457731	4.03272394	1.44035725	-0.14159082	5.67099918	-4.26141222	2.16458072	11.10477176	-1.70438324	0.03351425	10.19386726	1.17457937	-2.27623400	11.80808170	0.23675202	-3.15034295	5.28349416	1.94103422	11.32375790
3806	38.05000000	9.59045902	1.73793241	5.75052334	8.84277019	-1.88290328	0.50823655	3.70985341	2.67942609	-0.57506892	4.77764984	-3.19106047	2.55218743	11.08123990	-1.87205043	0.16677168	10.28719167	0.98755406	-2.26231097	9.87905821	0.67365994	0.60673317	5.70308099	1.72221645	11.11745622
3807	38.06000000	9.78127837	1.64038858	5.99246079	9.71300896	-2.04900834	3.07984737	3.96151268	2.73291174	-1.27597334	4.16632601	-1.67843486	3.37956373	11.39028053	-2.48765581	0.28239286	10.34820669	0.70529324	-2.69038511	-30.26267376	9.21248927	-6.80595568	5.56563001	1.99974480	11.32787385
3808	38.07000000	11.01929543	1.43632351	6.62040601	11.24491709	-0.94497019	6.74412209	8.00701521	1.21958559	6.46118233	5.64709142	0.13452912	4.51344935	12.02271852	-2.73548694	0.48278180	10.47029009	0.69823366	-2.76467263	-4.98255629	-13.16807618	11.13662269	5.41898681	2.14381022	11.87470052
3809	38.08000000	13.04477743	1.02381703	6.94544652	12.60799295	0.86437892	9.04575491	21.20127489	-4.88857059	17.53013873	9.19006164	1.44074210	6.45392140	12.83308076	-1.38950995	1.51984203	11.31773749	0.89596042	-2.23342012	39.59930165	-8.29975564	25.50215607	5.31757483	2.64973739	12.06097082
3810	38.09000000	14.44375309	0.53969659	7.52507830	14.57262735	2.34079521	10.60032918	41.19292333	-19.68262628	8.79913994	17.37502173	2.02531559	7.83980870	13.25822430	0.42252987	3.12268452	11.76329026	1.02919640	-1.46151296	25.58266991	6.64932404	12.57756143	5.45770571	2.73082512	12.13045722
3811	38.10000000	14.16129279	0.32188330	7.72902014	16.03192918	4.68744545	10.19644553	37.15253509	-14.44308983	-0.48897152	29.51113110	0.94751047	4.94772707	13.08485212	1.27303651	3.91078468	12.12625782	0.39192820	-0.51865583	17.44875692	-0.15057836	10.34803813	4.98817354	2.78002006	12.16074389
3812	38.11000000	13.52968905	0.15810763	7.97569529	14.30225518	6.18016511	9.04971980	14.29641179	-2.83040516	-1.19878082	30.33720051	-4.54503675	1.03188449	12.19793557	1.10083910	3.95329125	12.29425439	-1.40080343	-0.05864839	16.01592543	-0.69718530	11.97712646	4.69550186	2.41843642	12.27415864
3813	38.12000000	13.37732329	-0.36880733	8.08842013	11.02473513	4.23158944	7.66733489	5.60800554	3.67486845	1.01845739	22.67730886	-5.19214201	1.10206431	11.38228445	-0.06956058	3.81489859	12.54396962	-3.63531022	0.25232370	9.79158734	-1.25036287	6.54068480	4.65821463	1.55697721	11.87672655
3814	38.13000000	13.31381635	-0.86004261	7.16389813	9.91378271	1.05191264	6.50547730	3.65977747	7.59571237	-2.48455909	14.45414795	-3.78775221	-1.09388500	10.77198057	-1.90018349	2.97572696	13.50248272	-5.46379457	0.34750397	19.06848096	-13.37592120	8.54372578	6.54296768	1.30488786	11.48656540
3815	38.14000000	13.19821154	-1.02923881	6.17756903	11.32329510	-1.22817108	7.17558164	3.05447111	11.85474572	-5.73613638	8.31999473	-2.11081457	-2.47292201	10.08032314	-2.98110837	1.92969172	14.35117073	-6.59504456	0.75580268	15.32089444	-5.55555733	9.90516159	7.85007196	1.73755585	11.30154222
3816	38.15000000	13.53863266	-1.56889257	5.66567678	12.11040500	-2.42941698	7.07012567	3.19281314	13.42445578	-6.70496826	5.25137189	-2.00138043	2.62853748	9.44639653	-2.80179121	2.26645537	14.17915909	-7.34125077	1.72504390	7.88665121	-4.71751881	7.61677379	8.21445336	2.55646406	11.06223756
3817	38.16000000	13.61457098	-2.27427901	5.48451247	12.29706302	-2.95147677	6.82617287	4.25716150	11.50063819	-7.82759678	5.04173221	-1.68917678	3.42308609	9.28872085	-1.77686681	3.24065682	13.43029743	-7.73609706	1.63321582	6.94583155	-5.24190602	5.86332617	9.89861226	3.05765506	10.89522642
3818	38.17000000	13.04922312	-2.47803430	5.34262344	12.17981505	-3.75701286	6.99614253	6.42041574	10.76526943	-6.96111469	5.71259948	-0.01151623	0.72743555	9.38419042	-0.71092864	3.11447920	12.08617311	-7.29735556	0.75111192	8.89042552	-3.87596324	8.10872905	12.18871130	5.48625359	11.21004814
3819	38.18000000	12.73989367	-2.07959739	5.06750881	11.93465628	-3.86925780	7.19433242	10.19798091	13.18101234	-1.86391986	6.55513671	1.79096581	-0.80728138	9.67698892	-1.12929743	1.53606031	10.90862709	-5.95161220	-0.04061729	7.75982160	-1.22245384	10.04015708	13.22128440	5.47328675	11.85849335
3820	38.19000000	12.71751832	-1.87082521	4.49854458	11.20785028	-3.31836502	7.09774929	13.94810966	14.30734619	-1.20770965	7.59224911	2.62267288	-2.01692234	10.02305845	-2.82404878	0.56058845	10.60534662	-4.91909644	0.05464068	6.39779301	-2.97685213	8.49690068	11.05762857	4.88916548	11.34947094
3821	38.20000000	12.23674029	-1.89243812	4.21993537	10.43419183	-2.41114894	7.02897345	13.09186064	13.77279766	-2.54338492	8.58602143	2.59756853	-1.64764280	10.02097614	-5.24214461	0.18123367	10.84887552	-4.50268276	-0.02948520	6.70443018	-3.25444111	8.13381783	10.31362482	3.07397392	11.27232714
3822	38.21000000	11.26152895	-1.78414960	4.05565781	9.77799260	-1.24438596	7.07535789	9.39035361	10.11111253	0.85133094	9.80890059	1.72680311	-0.51914616	8.97477667	-7.70990441	0.13486474	10.61928239	-3.68183547	0.08827073	6.17898571	-1.48035375	9.12169543	10.52051325	2.64216714	9.34242680
